<mxfile host="65bd71144e">
    <diagram id="9WcHOZZ8MyUwHIvwN553" name="Page-1">
        <mxGraphModel dx="826" dy="567" grid="1" gridSize="10" guides="1" tooltips="1" connect="1" arrows="1" fold="1" page="1" pageScale="1" pageWidth="850" pageHeight="1100" math="0" shadow="0">
            <root>
                <mxCell id="0"/>
                <mxCell id="1" parent="0"/>
                <mxCell id="5" value="" style="edgeStyle=none;html=1;entryX=0.5;entryY=0;entryDx=0;entryDy=0;" edge="1" parent="1" source="2" target="3">
                    <mxGeometry relative="1" as="geometry"/>
                </mxCell>
                <mxCell id="8" value="" style="edgeStyle=none;html=1;entryX=0.5;entryY=0;entryDx=0;entryDy=0;" edge="1" parent="1" source="2" target="7">
                    <mxGeometry relative="1" as="geometry"/>
                </mxCell>
                <mxCell id="2" value="App.jsx" style="rounded=1;whiteSpace=wrap;html=1;" vertex="1" parent="1">
                    <mxGeometry x="360" y="80" width="120" height="60" as="geometry"/>
                </mxCell>
                <mxCell id="10" value="" style="edgeStyle=none;html=1;" edge="1" parent="1" source="3" target="9">
                    <mxGeometry relative="1" as="geometry"/>
                </mxCell>
                <mxCell id="12" value="" style="edgeStyle=none;html=1;" edge="1" parent="1" source="3" target="11">
                    <mxGeometry relative="1" as="geometry"/>
                </mxCell>
                <mxCell id="13" value="" style="edgeStyle=none;html=1;" edge="1" parent="1" source="3" target="11">
                    <mxGeometry relative="1" as="geometry"/>
                </mxCell>
                <mxCell id="15" value="" style="edgeStyle=none;html=1;" edge="1" parent="1" source="3" target="14">
                    <mxGeometry relative="1" as="geometry"/>
                </mxCell>
                <mxCell id="3" value="Form.jsx&lt;br&gt;" style="rounded=1;whiteSpace=wrap;html=1;arcSize=17;" vertex="1" parent="1">
                    <mxGeometry x="250" y="210" width="120" height="60" as="geometry"/>
                </mxCell>
                <mxCell id="7" value="Preview.jsx&lt;br&gt;" style="rounded=1;whiteSpace=wrap;html=1;shadow=0;glass=0;" vertex="1" parent="1">
                    <mxGeometry x="670" y="210" width="120" height="60" as="geometry"/>
                </mxCell>
                <mxCell id="9" value="ProfileChart&lt;br&gt;" style="rounded=1;whiteSpace=wrap;html=1;arcSize=17;" vertex="1" parent="1">
                    <mxGeometry x="50" y="330" width="120" height="60" as="geometry"/>
                </mxCell>
                <mxCell id="11" value="ProfileStats.jsx&lt;br&gt;" style="rounded=1;whiteSpace=wrap;html=1;arcSize=17;" vertex="1" parent="1">
                    <mxGeometry x="440" y="330" width="120" height="60" as="geometry"/>
                </mxCell>
                <mxCell id="14" value="ProfileStreak.jsx" style="rounded=1;whiteSpace=wrap;html=1;arcSize=17;" vertex="1" parent="1">
                    <mxGeometry x="250" y="330" width="120" height="60" as="geometry"/>
                </mxCell>
            </root>
        </mxGraphModel>
    </diagram>
</mxfile>